HIERARCHY
ROOT Hips
{
	OFFSET -0.001795 -0.223333 0.028219
	CHANNELS 6 Xposition Yposition Zposition Zrotation Yrotation Xrotation 
	JOINT LeftUpLeg
	{
		OFFSET 0.069520 -0.091406 -0.006815
		CHANNELS 3 Zrotation Yrotation Xrotation
		JOINT LeftLeg
		{
			OFFSET 0.034277 -0.375199 -0.004496
			CHANNELS 3 Zrotation Yrotation Xrotation
			JOINT LeftFoot
			{
				OFFSET -0.013596 -0.397961 -0.043693
				CHANNELS 3 Zrotation Yrotation Xrotation
				JOINT LeftToe
				{
					OFFSET 0.026358 -0.055791 0.119288
					CHANNELS 3 Zrotation Yrotation Xrotation
					End Site
					{
						OFFSET 0.000000 0.000000 0.000000
					}
				}
			}
		}
	}
	JOINT RightUpLeg
	{
		OFFSET -0.067670 -0.090522 -0.004320
		CHANNELS 3 Zrotation Yrotation Xrotation
		JOINT RightLeg
		{
			OFFSET -0.038290 -0.382569 -0.008850
			CHANNELS 3 Zrotation Yrotation Xrotation
			JOINT RightFoot
			{
				OFFSET 0.015774 -0.398415 -0.042312
				CHANNELS 3 Zrotation Yrotation Xrotation
				JOINT RightToe
				{
					OFFSET -0.025372 -0.048144 0.123348
					CHANNELS 3 Zrotation Yrotation Xrotation
					End Site
					{
						OFFSET 0.000000 0.000000 0.000000
					}
				}
			}
		}
	}
	JOINT Spine
	{
		OFFSET -0.002533 0.108963 -0.026696
		CHANNELS 3 Zrotation Yrotation Xrotation
		JOINT Spine1
		{
			OFFSET 0.005487 0.135180 0.001092
			CHANNELS 3 Zrotation Yrotation Xrotation
			JOINT Spine2
			{
				OFFSET 0.001457 0.052922 0.025425
				CHANNELS 3 Zrotation Yrotation Xrotation
				JOINT Neck
				{
					OFFSET -0.002778 0.213870 -0.042857
					CHANNELS 3 Zrotation Yrotation Xrotation
					JOINT Head
					{
						OFFSET 0.005152 0.064970 0.051349
						CHANNELS 3 Zrotation Yrotation Xrotation
						End Site
						{
							OFFSET 0.000000 0.000000 0.000000
						}
					}
				}
				JOINT LeftShoulder
				{
					OFFSET 0.078845 0.121749 -0.034090
					CHANNELS 3 Zrotation Yrotation Xrotation
					JOINT LeftArm
					{
						OFFSET 0.090977 0.030469 -0.008868
						CHANNELS 3 Zrotation Yrotation Xrotation
						JOINT LeftForeArm
						{
							OFFSET 0.259612 -0.012772 -0.027456
							CHANNELS 3 Zrotation Yrotation Xrotation
							JOINT LeftHand
							{
								OFFSET 0.249234 0.008986 -0.001171
								CHANNELS 3 Zrotation Yrotation Xrotation
								End Site
								{
									OFFSET 0.000000 0.000000 0.000000
								}
							}
						}
					}
				}
				JOINT RightShoulder
				{
					OFFSET -0.081759 0.118833 -0.038615
					CHANNELS 3 Zrotation Yrotation Xrotation
					JOINT RightArm
					{
						OFFSET -0.096012 0.032551 -0.009143
						CHANNELS 3 Zrotation Yrotation Xrotation
						JOINT RightForeArm
						{
							OFFSET -0.253742 -0.013329 -0.021401
							CHANNELS 3 Zrotation Yrotation Xrotation
							JOINT RightHand
							{
								OFFSET -0.255298 0.007772 -0.005559
								CHANNELS 3 Zrotation Yrotation Xrotation
								End Site
								{
									OFFSET 0.000000 0.000000 0.000000
								}
							}
						}
					}
				}
			}
		}
	}
}
MOTION
Frames: 10
Frame Time: 0.050000
0.000000 0.960296 0.000000 -2.182700 -9.842947 -2.080567 1.730542 -0.063760 -1.113463 2.383575 -0.854503 15.589640 -2.364078 -5.487346 -0.797832 0.000000 0.000000 0.000000 -0.579551 0.201351 -2.005702 -1.063887 1.474936 19.079408 -0.376924 -3.043550 3.551133 0.000000 0.000000 0.000000 2.084423 0.376348 -5.609526 -7.636603 3.239279 -6.276042 -3.813630 4.795934 7.893573 4.867368 -5.662272 9.881749 0.000000 0.000000 0.000000 10.247249 -0.876026 0.985823 -59.401612 -56.726611 24.933050 144.090326 -40.206378 -87.907767 0.000000 0.000000 0.000000 -26.419858 -0.566839 1.793213 -7.941987 39.879364 -4.656766 -52.368201 -20.527939 10.470778 0.000000 0.000000 0.000000 
0.000006 0.956383 0.000552 -2.696039 -10.526748 -2.213089 3.083922 -0.003994 -0.839265 1.629210 -0.641660 16.224949 -1.634396 -5.241080 -3.817017 0.000000 0.000000 0.000000 -0.426460 0.277654 -2.857619 0.221906 1.360273 21.339373 -1.155852 -3.817321 1.661277 0.000000 0.000000 0.000000 2.930347 0.563080 -7.233449 -8.836727 3.961765 -3.982453 -3.386161 4.774868 7.745303 4.090286 -5.481363 13.665461 0.000000 0.000000 0.000000 6.215252 -0.577378 0.621378 -59.214859 -52.815048 22.243743 144.417567 -43.163959 -92.759548 0.000000 0.000000 0.000000 -25.712210 -0.679085 1.793130 -8.583461 38.675431 -4.693886 -55.907566 -17.450321 9.705488 0.000000 0.000000 0.000000 
0.000521 0.951447 -0.000173 -2.426218 -11.815607 -3.359306 1.969839 0.012626 -0.446813 2.405394 -0.832884 18.104671 -1.315298 -5.073061 -5.246809 0.000000 0.000000 0.000000 -1.513995 0.253676 -2.430821 0.796835 1.335845 22.159109 -0.955543 -2.250197 -0.175995 0.000000 0.000000 0.000000 3.977229 0.532122 -5.892232 -9.528927 4.214157 -4.733799 -4.082789 5.131604 9.805128 3.752220 -5.441316 15.606747 0.000000 0.000000 0.000000 3.099173 2.070781 -0.450234 -56.930189 -44.191806 15.620950 151.439199 -48.961060 -111.429347 0.000000 0.000000 0.000000 -23.683028 -3.587931 1.219373 -11.068690 40.682058 -5.854559 -59.501631 -16.347707 9.704654 0.000000 0.000000 0.000000 
0.000671 0.947996 -0.001506 -2.301351 -12.050212 -4.216416 1.166638 -0.018075 -0.618138 3.906006 -1.309722 20.825646 -2.180289 -7.830016 -6.462172 0.000000 0.000000 0.000000 -1.838021 0.290494 -2.848917 1.398498 1.367395 24.243857 -1.115983 -2.887655 0.217969 0.000000 0.000000 0.000000 3.360197 0.428756 -5.043547 -9.895014 4.427720 -4.373710 -4.900008 5.223340 11.333660 3.815579 -5.959796 17.897714 0.000000 0.000000 0.000000 -0.350286 3.489804 -1.247794 -56.493167 -38.300639 11.843862 152.885200 -57.796500 -123.202432 0.000000 0.000000 0.000000 -20.407705 -5.114811 0.576936 -16.172894 42.149163 -7.778999 -60.807351 -19.636121 11.664103 0.000000 0.000000 0.000000 
0.000724 0.945967 -0.003353 -2.262021 -12.498070 -4.737392 0.881669 -0.105307 -1.550137 3.451645 -1.152371 22.793324 -2.252067 -7.538147 -5.666116 0.000000 0.000000 0.000000 -2.033577 0.332464 -3.356623 1.777303 1.394360 25.417084 -1.414067 -3.646142 0.277030 0.000000 0.000000 0.000000 2.971082 0.341760 -4.179895 -9.806777 4.450852 -3.799091 -5.411412 5.350527 11.840208 4.179699 -6.481123 18.335493 0.000000 0.000000 0.000000 -2.004841 3.090489 -1.265538 -55.201308 -29.580681 6.759739 145.438655 -69.899336 -123.854200 0.000000 0.000000 0.000000 -19.116713 -5.863873 0.301976 -18.379690 42.315311 -8.559491 -63.864912 -19.928734 12.479249 0.000000 0.000000 0.000000 
0.000400 0.946221 -0.005518 -2.697052 -12.616446 -4.864301 1.114002 -0.134273 -2.015922 3.999653 -1.338792 23.680062 -2.420238 -7.524831 -4.876709 0.000000 0.000000 0.000000 -1.338330 0.405375 -4.245552 1.305766 1.700045 26.879537 -1.814781 -5.318686 1.556404 0.000000 0.000000 0.000000 2.599519 0.272478 -3.490983 -9.454626 4.323839 -3.444590 -5.902388 5.510089 12.694962 5.150327 -7.918762 19.334619 0.000000 0.000000 0.000000 -4.639388 3.102397 -1.523144 -52.924395 -23.274400 3.156486 122.224839 -83.959044 -110.308053 0.000000 0.000000 0.000000 -18.573850 -5.138213 0.296928 -22.679394 41.600375 -9.698561 -66.031957 -23.225889 14.929957 0.000000 0.000000 0.000000 
-0.000433 0.948402 -0.008274 -2.661120 -12.800502 -4.431368 1.458266 -0.187434 -2.853977 3.163983 -1.034896 23.544376 -2.093605 -6.200353 -3.828987 0.000000 0.000000 0.000000 -0.541325 0.540838 -5.604519 0.666894 1.980521 27.336593 -2.210603 -6.544115 2.148435 0.000000 0.000000 0.000000 1.949451 0.179169 -2.586426 -9.469293 4.310387 -3.592618 -6.396642 5.372996 13.327051 5.945761 -8.809987 19.059568 0.000000 0.000000 0.000000 -7.107666 0.672808 -0.723205 -50.773133 -18.798060 0.849093 15.111433 -80.115011 -7.266631 0.000000 0.000000 0.000000 -18.547548 -4.356856 0.447476 -25.511705 39.285360 -9.838109 -70.663033 -23.893756 16.509079 0.000000 0.000000 0.000000 
-0.002149 0.949755 -0.011551 -3.094291 -12.778029 -3.994476 2.607387 -0.175415 -3.532854 2.681718 -0.878763 22.738349 -2.106828 -5.778167 -2.881144 0.000000 0.000000 0.000000 0.430976 0.700018 -6.907739 0.322747 2.148829 27.823287 -2.723478 -7.512971 1.709253 0.000000 0.000000 0.000000 1.502151 0.074718 -1.161744 -9.298827 4.303763 -2.865032 -6.802556 4.627217 13.245688 7.850968 -11.400950 20.477916 0.000000 0.000000 0.000000 -9.632933 -1.334371 0.059018 -48.485086 -14.748806 -0.957363 5.705103 -73.161209 0.656136 0.000000 0.000000 0.000000 -19.175051 -3.361892 0.794890 -28.969680 38.335999 -10.646709 -73.051435 -25.411932 18.049923 0.000000 0.000000 0.000000 
-0.004723 0.949995 -0.015755 -3.032831 -13.293072 -3.917090 3.298596 -0.159978 -4.034562 1.402225 -0.410784 22.784502 -1.273693 -3.797143 -2.784996 0.000000 0.000000 0.000000 1.039516 0.843331 -7.972905 -0.185732 2.473162 28.666234 -3.017129 -8.429309 2.223256 0.000000 0.000000 0.000000 1.068449 -0.038341 0.796845 -10.169359 4.691712 -3.177918 -7.150605 4.503271 14.573679 8.680071 -12.509613 20.742635 0.000000 0.000000 0.000000 -10.840573 -4.896325 1.738708 -46.768326 -13.840292 -1.514589 13.406019 -65.780979 -4.255112 0.000000 0.000000 0.000000 -20.231066 -1.781910 1.156908 -30.561435 37.125227 -10.729883 -74.292663 -24.265373 17.335756 0.000000 0.000000 0.000000 
-0.007928 0.948778 -0.020805 -3.432771 -14.164164 -3.908404 4.447740 -0.113328 -4.957517 0.792753 -0.113829 23.832712 -0.758494 -2.729586 -3.184578 0.000000 0.000000 0.000000 1.735872 0.969268 -8.746898 -0.242922 2.624419 29.097161 -3.713817 -9.469955 1.005879 0.000000 0.000000 0.000000 0.915714 -0.131891 2.792719 -10.792017 5.016932 -3.014398 -7.609227 4.165072 15.228916 10.027800 -14.228250 21.203708 0.000000 0.000000 0.000000 -10.302349 -7.583129 3.078596 -47.717463 -13.352013 -1.758668 16.987773 -58.858523 -5.543706 0.000000 0.000000 0.000000 -22.568615 0.330611 1.739277 -31.571526 37.849242 -11.520073 -71.608201 -22.750407 15.244716 0.000000 0.000000 0.000000 
